<svg xmlns="http://www.w3.org/2000/svg" width="1200" height="800" viewBox="0 0 1200 800" role="img"><defs>
<linearGradient id="bg" x1="0" y1="0" x2="1" y2="1"><stop offset="0" stop-color="#0d0d10"/><stop offset="1" stop-color="#15151b"/></linearGradient>
<linearGradient id="mint" x1="0" y1="0" x2="1" y2="1"><stop offset="0" stop-color="#04E98A"/><stop offset="1" stop-color="#04E98A" stop-opacity="0.4"/></linearGradient>
<radialGradient id="glow" cx="0.5" cy="0.4" r="0.6"><stop offset="0" stop-color="#04E98A" stop-opacity="0.18"/><stop offset="1" stop-color="#04E98A" stop-opacity="0"/></radialGradient>
</defs><rect width="1200" height="800" fill="url(#bg)"/><rect width="1200" height="800" fill="url(#glow)"/><line x1="0" y1="0" x2="0" y2="800" stroke="#ffffff" stroke-opacity="0.03"/><line x1="80" y1="0" x2="80" y2="800" stroke="#ffffff" stroke-opacity="0.03"/><line x1="160" y1="0" x2="160" y2="800" stroke="#ffffff" stroke-opacity="0.03"/><line x1="240" y1="0" x2="240" y2="800" stroke="#ffffff" stroke-opacity="0.03"/><line x1="320" y1="0" x2="320" y2="800" stroke="#ffffff" stroke-opacity="0.03"/><line x1="400" y1="0" x2="400" y2="800" stroke="#ffffff" stroke-opacity="0.03"/><line x1="480" y1="0" x2="480" y2="800" stroke="#ffffff" stroke-opacity="0.03"/><line x1="560" y1="0" x2="560" y2="800" stroke="#ffffff" stroke-opacity="0.03"/><line x1="640" y1="0" x2="640" y2="800" stroke="#ffffff" stroke-opacity="0.03"/><line x1="720" y1="0" x2="720" y2="800" stroke="#ffffff" stroke-opacity="0.03"/><line x1="800" y1="0" x2="800" y2="800" stroke="#ffffff" stroke-opacity="0.03"/><line x1="880" y1="0" x2="880" y2="800" stroke="#ffffff" stroke-opacity="0.03"/><line x1="960" y1="0" x2="960" y2="800" stroke="#ffffff" stroke-opacity="0.03"/><line x1="1040" y1="0" x2="1040" y2="800" stroke="#ffffff" stroke-opacity="0.03"/><line x1="1120" y1="0" x2="1120" y2="800" stroke="#ffffff" stroke-opacity="0.03"/><line x1="1200" y1="0" x2="1200" y2="800" stroke="#ffffff" stroke-opacity="0.03"/><line x1="0" y1="0" x2="1200" y2="0" stroke="#ffffff" stroke-opacity="0.03"/><line x1="0" y1="80" x2="1200" y2="80" stroke="#ffffff" stroke-opacity="0.03"/><line x1="0" y1="160" x2="1200" y2="160" stroke="#ffffff" stroke-opacity="0.03"/><line x1="0" y1="240" x2="1200" y2="240" stroke="#ffffff" stroke-opacity="0.03"/><line x1="0" y1="320" x2="1200" y2="320" stroke="#ffffff" stroke-opacity="0.03"/><line x1="0" y1="400" x2="1200" y2="400" stroke="#ffffff" stroke-opacity="0.03"/><line x1="0" y1="480" x2="1200" y2="480" stroke="#ffffff" stroke-opacity="0.03"/><line x1="0" y1="560" x2="1200" y2="560" stroke="#ffffff" stroke-opacity="0.03"/><line x1="0" y1="640" x2="1200" y2="640" stroke="#ffffff" stroke-opacity="0.03"/><line x1="0" y1="720" x2="1200" y2="720" stroke="#ffffff" stroke-opacity="0.03"/><line x1="0" y1="800" x2="1200" y2="800" stroke="#ffffff" stroke-opacity="0.03"/><rect x="380" y="520" width="440" height="150" rx="14" fill="#111116" stroke="#04E98A" stroke-opacity="0.12" stroke-width="2"/><rect x="404" y="550" width="120" height="14" rx="7" fill="#04E98A" fill-opacity="0.5"/><rect x="404" y="582" width="300" height="10" rx="5" fill="#ffffff" fill-opacity="0.12"/><rect x="404" y="606" width="230" height="10" rx="5" fill="#ffffff" fill-opacity="0.08"/><rect x="398" y="430" width="440" height="150" rx="14" fill="#111116" stroke="#04E98A" stroke-opacity="0.26" stroke-width="2"/><rect x="422" y="460" width="120" height="14" rx="7" fill="#04E98A" fill-opacity="0.5"/><rect x="422" y="492" width="300" height="10" rx="5" fill="#ffffff" fill-opacity="0.12"/><rect x="422" y="516" width="230" height="10" rx="5" fill="#ffffff" fill-opacity="0.08"/><rect x="416" y="340" width="440" height="150" rx="14" fill="#111116" stroke="#04E98A" stroke-opacity="0.40" stroke-width="2"/><rect x="440" y="370" width="120" height="14" rx="7" fill="#04E98A" fill-opacity="0.5"/><rect x="440" y="402" width="300" height="10" rx="5" fill="#ffffff" fill-opacity="0.12"/><rect x="440" y="426" width="230" height="10" rx="5" fill="#ffffff" fill-opacity="0.08"/><rect x="434" y="250" width="440" height="150" rx="14" fill="#111116" stroke="#04E98A" stroke-opacity="0.54" stroke-width="2"/><rect x="458" y="280" width="120" height="14" rx="7" fill="#04E98A" fill-opacity="0.5"/><rect x="458" y="312" width="300" height="10" rx="5" fill="#ffffff" fill-opacity="0.12"/><rect x="458" y="336" width="230" height="10" rx="5" fill="#ffffff" fill-opacity="0.08"/></svg>