<svg xmlns="http://www.w3.org/2000/svg" width="1200" height="800" viewBox="0 0 1200 800" role="img"><defs>
<linearGradient id="bg" x1="0" y1="0" x2="1" y2="1"><stop offset="0" stop-color="#0d0d10"/><stop offset="1" stop-color="#15151b"/></linearGradient>
<linearGradient id="mint" x1="0" y1="0" x2="1" y2="1"><stop offset="0" stop-color="#04E98A"/><stop offset="1" stop-color="#04E98A" stop-opacity="0.4"/></linearGradient>
<radialGradient id="glow" cx="0.5" cy="0.4" r="0.6"><stop offset="0" stop-color="#04E98A" stop-opacity="0.18"/><stop offset="1" stop-color="#04E98A" stop-opacity="0"/></radialGradient>
</defs><rect width="1200" height="800" fill="url(#bg)"/><rect width="1200" height="800" fill="url(#glow)"/><line x1="0" y1="0" x2="0" y2="800" stroke="#ffffff" stroke-opacity="0.03"/><line x1="80" y1="0" x2="80" y2="800" stroke="#ffffff" stroke-opacity="0.03"/><line x1="160" y1="0" x2="160" y2="800" stroke="#ffffff" stroke-opacity="0.03"/><line x1="240" y1="0" x2="240" y2="800" stroke="#ffffff" stroke-opacity="0.03"/><line x1="320" y1="0" x2="320" y2="800" stroke="#ffffff" stroke-opacity="0.03"/><line x1="400" y1="0" x2="400" y2="800" stroke="#ffffff" stroke-opacity="0.03"/><line x1="480" y1="0" x2="480" y2="800" stroke="#ffffff" stroke-opacity="0.03"/><line x1="560" y1="0" x2="560" y2="800" stroke="#ffffff" stroke-opacity="0.03"/><line x1="640" y1="0" x2="640" y2="800" stroke="#ffffff" stroke-opacity="0.03"/><line x1="720" y1="0" x2="720" y2="800" stroke="#ffffff" stroke-opacity="0.03"/><line x1="800" y1="0" x2="800" y2="800" stroke="#ffffff" stroke-opacity="0.03"/><line x1="880" y1="0" x2="880" y2="800" stroke="#ffffff" stroke-opacity="0.03"/><line x1="960" y1="0" x2="960" y2="800" stroke="#ffffff" stroke-opacity="0.03"/><line x1="1040" y1="0" x2="1040" y2="800" stroke="#ffffff" stroke-opacity="0.03"/><line x1="1120" y1="0" x2="1120" y2="800" stroke="#ffffff" stroke-opacity="0.03"/><line x1="1200" y1="0" x2="1200" y2="800" stroke="#ffffff" stroke-opacity="0.03"/><line x1="0" y1="0" x2="1200" y2="0" stroke="#ffffff" stroke-opacity="0.03"/><line x1="0" y1="80" x2="1200" y2="80" stroke="#ffffff" stroke-opacity="0.03"/><line x1="0" y1="160" x2="1200" y2="160" stroke="#ffffff" stroke-opacity="0.03"/><line x1="0" y1="240" x2="1200" y2="240" stroke="#ffffff" stroke-opacity="0.03"/><line x1="0" y1="320" x2="1200" y2="320" stroke="#ffffff" stroke-opacity="0.03"/><line x1="0" y1="400" x2="1200" y2="400" stroke="#ffffff" stroke-opacity="0.03"/><line x1="0" y1="480" x2="1200" y2="480" stroke="#ffffff" stroke-opacity="0.03"/><line x1="0" y1="560" x2="1200" y2="560" stroke="#ffffff" stroke-opacity="0.03"/><line x1="0" y1="640" x2="1200" y2="640" stroke="#ffffff" stroke-opacity="0.03"/><line x1="0" y1="720" x2="1200" y2="720" stroke="#ffffff" stroke-opacity="0.03"/><line x1="0" y1="800" x2="1200" y2="800" stroke="#ffffff" stroke-opacity="0.03"/><path d="M250 300 Q 335.0 200.0 420 240" fill="none" stroke="#04E98A" stroke-opacity="0.3" stroke-width="2"/><path d="M420 240 Q 490.0 215.0 560 330" fill="none" stroke="#04E98A" stroke-opacity="0.3" stroke-width="2"/><path d="M560 330 Q 640.0 225.0 720 260" fill="none" stroke="#04E98A" stroke-opacity="0.3" stroke-width="2"/><path d="M720 260 Q 800.0 240.0 880 360" fill="none" stroke="#04E98A" stroke-opacity="0.3" stroke-width="2"/><path d="M880 360 Q 930.0 260.0 980 300" fill="none" stroke="#04E98A" stroke-opacity="0.3" stroke-width="2"/><path d="M980 300 Q 680.0 330.0 380 500" fill="none" stroke="#04E98A" stroke-opacity="0.3" stroke-width="2"/><path d="M380 500 Q 510.0 440.0 640 520" fill="none" stroke="#04E98A" stroke-opacity="0.3" stroke-width="2"/><path d="M640 520 Q 740.0 450.0 840 520" fill="none" stroke="#04E98A" stroke-opacity="0.3" stroke-width="2"/><circle cx="250" cy="300" r="9" fill="url(#mint)"/><circle cx="250" cy="300" r="18" fill="none" stroke="#04E98A" stroke-opacity="0.2"/><circle cx="420" cy="240" r="9" fill="url(#mint)"/><circle cx="420" cy="240" r="18" fill="none" stroke="#04E98A" stroke-opacity="0.2"/><circle cx="560" cy="330" r="9" fill="url(#mint)"/><circle cx="560" cy="330" r="18" fill="none" stroke="#04E98A" stroke-opacity="0.2"/><circle cx="720" cy="260" r="9" fill="url(#mint)"/><circle cx="720" cy="260" r="18" fill="none" stroke="#04E98A" stroke-opacity="0.2"/><circle cx="880" cy="360" r="9" fill="url(#mint)"/><circle cx="880" cy="360" r="18" fill="none" stroke="#04E98A" stroke-opacity="0.2"/><circle cx="980" cy="300" r="9" fill="url(#mint)"/><circle cx="980" cy="300" r="18" fill="none" stroke="#04E98A" stroke-opacity="0.2"/><circle cx="380" cy="500" r="9" fill="url(#mint)"/><circle cx="380" cy="500" r="18" fill="none" stroke="#04E98A" stroke-opacity="0.2"/><circle cx="640" cy="520" r="9" fill="url(#mint)"/><circle cx="640" cy="520" r="18" fill="none" stroke="#04E98A" stroke-opacity="0.2"/><circle cx="840" cy="520" r="9" fill="url(#mint)"/><circle cx="840" cy="520" r="18" fill="none" stroke="#04E98A" stroke-opacity="0.2"/></svg>