<svg xmlns="http://www.w3.org/2000/svg" width="1200" height="800" viewBox="0 0 1200 800" role="img"><defs>
<linearGradient id="bg" x1="0" y1="0" x2="1" y2="1"><stop offset="0" stop-color="#0d0d10"/><stop offset="1" stop-color="#15151b"/></linearGradient>
<linearGradient id="mint" x1="0" y1="0" x2="1" y2="1"><stop offset="0" stop-color="#04E98A"/><stop offset="1" stop-color="#04E98A" stop-opacity="0.4"/></linearGradient>
<radialGradient id="glow" cx="0.5" cy="0.4" r="0.6"><stop offset="0" stop-color="#04E98A" stop-opacity="0.18"/><stop offset="1" stop-color="#04E98A" stop-opacity="0"/></radialGradient>
</defs><rect width="1200" height="800" fill="url(#bg)"/><rect width="1200" height="800" fill="url(#glow)"/><line x1="0" y1="0" x2="0" y2="800" stroke="#ffffff" stroke-opacity="0.03"/><line x1="80" y1="0" x2="80" y2="800" stroke="#ffffff" stroke-opacity="0.03"/><line x1="160" y1="0" x2="160" y2="800" stroke="#ffffff" stroke-opacity="0.03"/><line x1="240" y1="0" x2="240" y2="800" stroke="#ffffff" stroke-opacity="0.03"/><line x1="320" y1="0" x2="320" y2="800" stroke="#ffffff" stroke-opacity="0.03"/><line x1="400" y1="0" x2="400" y2="800" stroke="#ffffff" stroke-opacity="0.03"/><line x1="480" y1="0" x2="480" y2="800" stroke="#ffffff" stroke-opacity="0.03"/><line x1="560" y1="0" x2="560" y2="800" stroke="#ffffff" stroke-opacity="0.03"/><line x1="640" y1="0" x2="640" y2="800" stroke="#ffffff" stroke-opacity="0.03"/><line x1="720" y1="0" x2="720" y2="800" stroke="#ffffff" stroke-opacity="0.03"/><line x1="800" y1="0" x2="800" y2="800" stroke="#ffffff" stroke-opacity="0.03"/><line x1="880" y1="0" x2="880" y2="800" stroke="#ffffff" stroke-opacity="0.03"/><line x1="960" y1="0" x2="960" y2="800" stroke="#ffffff" stroke-opacity="0.03"/><line x1="1040" y1="0" x2="1040" y2="800" stroke="#ffffff" stroke-opacity="0.03"/><line x1="1120" y1="0" x2="1120" y2="800" stroke="#ffffff" stroke-opacity="0.03"/><line x1="1200" y1="0" x2="1200" y2="800" stroke="#ffffff" stroke-opacity="0.03"/><line x1="0" y1="0" x2="1200" y2="0" stroke="#ffffff" stroke-opacity="0.03"/><line x1="0" y1="80" x2="1200" y2="80" stroke="#ffffff" stroke-opacity="0.03"/><line x1="0" y1="160" x2="1200" y2="160" stroke="#ffffff" stroke-opacity="0.03"/><line x1="0" y1="240" x2="1200" y2="240" stroke="#ffffff" stroke-opacity="0.03"/><line x1="0" y1="320" x2="1200" y2="320" stroke="#ffffff" stroke-opacity="0.03"/><line x1="0" y1="400" x2="1200" y2="400" stroke="#ffffff" stroke-opacity="0.03"/><line x1="0" y1="480" x2="1200" y2="480" stroke="#ffffff" stroke-opacity="0.03"/><line x1="0" y1="560" x2="1200" y2="560" stroke="#ffffff" stroke-opacity="0.03"/><line x1="0" y1="640" x2="1200" y2="640" stroke="#ffffff" stroke-opacity="0.03"/><line x1="0" y1="720" x2="1200" y2="720" stroke="#ffffff" stroke-opacity="0.03"/><line x1="0" y1="800" x2="1200" y2="800" stroke="#ffffff" stroke-opacity="0.03"/><circle cx="600" cy="400" r="60" fill="none" stroke="#04E98A" stroke-opacity="0.43" stroke-width="2"/><circle cx="600" cy="400" r="106" fill="none" stroke="#04E98A" stroke-opacity="0.38" stroke-width="2"/><circle cx="600" cy="400" r="152" fill="none" stroke="#04E98A" stroke-opacity="0.33" stroke-width="2"/><circle cx="600" cy="400" r="198" fill="none" stroke="#04E98A" stroke-opacity="0.28" stroke-width="2"/><circle cx="600" cy="400" r="244" fill="none" stroke="#04E98A" stroke-opacity="0.23" stroke-width="2"/><circle cx="600" cy="400" r="290" fill="none" stroke="#04E98A" stroke-opacity="0.18" stroke-width="2"/><circle cx="600" cy="400" r="336" fill="none" stroke="#04E98A" stroke-opacity="0.13" stroke-width="2"/><line x1="600" y1="400" x2="930" y2="400" stroke="#04E98A" stroke-opacity="0.12" stroke-width="1.5"/><line x1="600" y1="400" x2="886" y2="565" stroke="#04E98A" stroke-opacity="0.12" stroke-width="1.5"/><line x1="600" y1="400" x2="765" y2="686" stroke="#04E98A" stroke-opacity="0.12" stroke-width="1.5"/><line x1="600" y1="400" x2="600" y2="730" stroke="#04E98A" stroke-opacity="0.12" stroke-width="1.5"/><line x1="600" y1="400" x2="435" y2="686" stroke="#04E98A" stroke-opacity="0.12" stroke-width="1.5"/><line x1="600" y1="400" x2="314" y2="565" stroke="#04E98A" stroke-opacity="0.12" stroke-width="1.5"/><line x1="600" y1="400" x2="270" y2="400" stroke="#04E98A" stroke-opacity="0.12" stroke-width="1.5"/><line x1="600" y1="400" x2="314" y2="235" stroke="#04E98A" stroke-opacity="0.12" stroke-width="1.5"/><line x1="600" y1="400" x2="435" y2="114" stroke="#04E98A" stroke-opacity="0.12" stroke-width="1.5"/><line x1="600" y1="400" x2="600" y2="70" stroke="#04E98A" stroke-opacity="0.12" stroke-width="1.5"/><line x1="600" y1="400" x2="765" y2="114" stroke="#04E98A" stroke-opacity="0.12" stroke-width="1.5"/><line x1="600" y1="400" x2="886" y2="235" stroke="#04E98A" stroke-opacity="0.12" stroke-width="1.5"/><circle cx="600" cy="400" r="26" fill="url(#mint)"/></svg>